<svg width="115" height="110" viewBox="0 0 115 110" fill="none" xmlns="http://www.w3.org/2000/svg">
<rect width="115" height="110" rx="17.2671" fill="#FFC700"/>
<path d="M70.835 63.1973H80.3818C80.888 63.1973 81.3073 63.6189 81.3073 64.1395V78.7933C81.3073 79.3086 80.8931 79.7355 80.3818 79.7355H70.835C70.3288 79.7355 69.9095 79.3138 69.9095 78.7933V64.1395C69.9095 63.6241 70.3288 63.1973 70.835 63.1973ZM42.8236 20.1261C54.0783 12.2032 54.922 27.8825 65.9721 18.0959V34.0719C55.4333 43.7231 53.1578 28.1271 42.8236 36.0553V20.1261ZM40.047 15.769C41.2333 15.769 42.1946 16.7477 42.1946 17.9554C42.1946 18.7571 41.7702 19.4598 41.1412 19.8398H41.2435V39.2099H45.4774C45.9837 39.2099 46.403 39.6315 46.403 40.1521V78.7985C46.403 79.3138 45.9888 79.7407 45.4774 79.7407H35.9255C35.4193 79.7407 35 79.319 35 78.7985V40.1521C35 39.6367 35.4142 39.2099 35.9255 39.2099H38.8555V19.8398H38.9578C38.3237 19.4598 37.8993 18.7571 37.8993 17.9554C37.8993 16.7477 38.8606 15.769 40.047 15.769ZM53.3777 50.4956H62.9245C63.4307 50.4956 63.85 50.9173 63.85 51.4378V78.7985C63.85 79.3138 63.4359 79.7407 62.9245 79.7407H53.3777C52.8715 79.7407 52.4522 79.319 52.4522 78.7985V51.4378C52.4573 50.9173 52.8715 50.4956 53.3777 50.4956Z" fill="#00923E"/>
</svg>
