<svg width="123" height="110" viewBox="0 0 123 110" fill="none" xmlns="http://www.w3.org/2000/svg">
<rect width="123" height="110" rx="17.5272" fill="#FFC700"/>
<path fill-rule="evenodd" clip-rule="evenodd" d="M44.8254 31.8714C69.5518 15.0708 71.3985 48.3219 95.6816 27.561V61.4407C72.5215 81.9108 67.5253 48.8368 44.8254 65.6453V31.8714ZM38.7184 22.6248C41.3244 22.6248 43.4368 24.702 43.4368 27.2619C43.4368 28.9624 42.5047 30.4482 41.1171 31.2554H41.3398V35.2287V74.0602V78.0334H41.1171C42.5047 78.8407 43.4368 79.896 43.4368 82.0265C43.4368 84.1564 41.3244 86.6626 38.7184 86.6626C36.113 86.6626 34.0006 84.1559 34.0006 82.0265C34.0006 79.896 34.9322 78.8407 36.3198 78.0334H36.0976V74.0602V35.2287V31.2554H36.3198C34.9322 30.4482 34.0006 28.9629 34.0006 27.2619C34.0006 24.702 36.113 22.6248 38.7184 22.6248Z" fill="#00923E"/>
</svg>
