<svg width="58" height="49" viewBox="0 0 58 49" fill="none" xmlns="http://www.w3.org/2000/svg">
<path d="M12.1458 30.6809L9.47463 36.0841C9.41229 36.2111 9.30895 36.3199 9.17697 36.3975C9.04499 36.4751 8.88994 36.5182 8.73036 36.5217L2.01044 37.0434L7.13308 40.9079C7.37097 41.088 7.4616 41.3601 7.39589 41.6097L5.88244 47.3379L11.7176 44.3231C11.9895 44.1821 12.318 44.1919 12.5718 44.3231L18.4092 47.3379L17.7442 44.8262C18.2971 44.88 18.8669 44.8448 19.4208 44.7136L20.1776 47.5826C20.1991 47.7069 20.1991 47.8352 20.1753 47.9634C20.1463 48.1179 20.084 48.2663 19.9918 48.4009C19.7982 48.6805 19.484 48.8822 19.1184 48.9618C18.7683 49.0382 18.382 48.998 18.0433 48.8238L12.1447 45.7766L6.29705 48.7993C6.17017 48.8708 6.02744 48.9256 5.87451 48.9589L5.76802 48.9814C5.60489 49.0068 5.42931 49.0068 5.25259 48.9775L5.19594 48.9687C4.81758 48.8923 4.50832 48.6907 4.31461 48.4244C4.11874 48.1554 4.05094 47.8312 4.12542 47.52L5.66267 41.7066L0.487923 37.802C0.351984 37.6992 0.236436 37.572 0.154873 37.432C0.0786725 37.3034 0.0292092 37.1643 0.00873832 37.0209L0.0030742 36.9573C-0.021848 36.6333 0.106161 36.3259 0.336125 36.089C0.563823 35.8541 0.891209 35.6926 1.26504 35.6564L8.13789 35.1268L10.8318 29.6737C10.9033 29.5266 11.0072 29.393 11.1376 29.2802C11.2441 29.1862 11.371 29.1069 11.5126 29.0453C11.5636 29.0218 11.6157 29.0022 11.6712 28.9875C12.0065 28.8837 12.3645 28.8984 12.6749 29.0061C12.9864 29.1147 13.2549 29.3183 13.4157 29.5944L15.5477 33.9023L14.928 36.2447C14.8827 36.1957 14.8465 36.1419 14.8182 36.0841L12.1458 30.6809ZM4.63746 14.8569C3.99175 14.622 3.68815 13.9799 3.96003 13.4219C4.23191 12.864 4.97618 12.6016 5.62189 12.8366L10.9156 14.7747C11.5613 15.0096 11.8649 15.6527 11.593 16.2097C11.3211 16.7676 10.5769 17.0299 9.93115 16.795L4.63746 14.8569ZM10.0206 7.727C9.52674 7.29729 9.529 6.60231 10.0263 6.17553C10.5236 5.74875 11.3279 5.75071 11.8218 6.18042L15.866 9.7121C16.3599 10.1418 16.3577 10.8368 15.8604 11.2636C15.363 11.6903 14.5587 11.6884 14.0648 11.2587L10.0206 7.727ZM18.1373 2.89738C17.8711 2.33748 18.1804 1.69634 18.8284 1.46631C19.4775 1.23628 20.2183 1.50351 20.4857 2.0634L22.672 6.65908C22.9383 7.21898 22.6279 7.86012 21.9799 8.09015C21.3319 8.32018 20.5899 8.05295 20.3237 7.49305L18.1373 2.89738ZM52.3781 12.8366C53.0238 12.6016 53.7681 12.864 54.04 13.4219C54.3118 13.9799 54.0082 14.622 53.3625 14.8569L48.0688 16.795C47.4231 17.0299 46.6789 16.7676 46.407 16.2097C46.1351 15.6527 46.4387 15.0096 47.0844 14.7747L52.3781 12.8366ZM46.1782 6.18042C46.6721 5.75071 47.4764 5.74875 47.9737 6.17553C48.471 6.60231 48.4733 7.29729 47.9794 7.727L43.9352 11.2587C43.4413 11.6884 42.6369 11.6903 42.1396 11.2636C41.6423 10.8368 41.6401 10.1418 42.134 9.7121L46.1782 6.18042ZM37.5143 2.0634C37.7817 1.50351 38.5225 1.23628 39.1716 1.46631C39.8196 1.69634 40.1289 2.33748 39.8627 2.89738L37.6763 7.49305C37.4101 8.05295 36.6681 8.32018 36.0201 8.09015C35.3721 7.86012 35.0617 7.21898 35.328 6.65908L37.5143 2.0634ZM27.6871 1.10022C27.6871 0.493338 28.2569 0 28.9604 0C29.6627 0 30.2336 0.493338 30.2336 1.10022V6.06884C30.2336 6.67572 29.6627 7.16906 28.9604 7.16906C28.2569 7.16906 27.6871 6.67572 27.6871 6.06884V1.10022ZM30.4376 13.2761L34.5112 21.517L44.8833 22.3196C45.3014 22.3558 45.6639 22.533 45.9153 22.7914L45.9573 22.8394C46.1804 23.0909 46.3028 23.41 46.2744 23.7458L46.2699 23.7957C46.2495 23.9621 46.1929 24.1177 46.1102 24.2587L46.0864 24.2959C46.0116 24.4124 45.9165 24.5201 45.8066 24.6121L37.9153 30.5693L40.2399 39.3613C40.3226 39.7107 40.2388 40.0582 40.0326 40.3411C39.5727 40.9774 38.5905 41.1565 37.8712 40.7503L29 36.1663L20.0552 40.7865C19.7071 40.9615 19.2937 41.0121 18.9031 40.9274C18.0796 40.7483 17.5845 40.0357 17.7692 39.329L20.0847 30.5693L12.2523 24.659C12.0988 24.5431 11.9733 24.4022 11.8829 24.2443C11.7926 24.0864 11.7391 23.9147 11.7255 23.7389C11.6995 23.4003 11.8241 23.0489 12.1062 22.7709C12.2478 22.6319 12.4143 22.5232 12.5933 22.4478C12.7779 22.3695 12.9819 22.3245 13.188 22.3147L23.4888 21.517L27.5726 13.2536C27.7403 12.9139 28.0541 12.6623 28.4223 12.5351C29.2175 12.2581 30.1068 12.5928 30.4319 13.2633L30.4376 13.2761ZM47.175 29.6884L49.8621 35.1268L56.735 35.6564C57.1088 35.6926 57.4362 35.8551 57.6639 36.089C57.8938 36.3259 58.0218 36.6333 57.9969 36.9573L57.9913 37.0209C57.9708 37.1643 57.9213 37.3034 57.8451 37.432C57.7636 37.572 57.6491 37.6982 57.5121 37.802L52.3373 41.7066L53.8746 47.52C53.9516 47.842 53.8746 48.164 53.6854 48.4244C53.4928 48.6897 53.1824 48.8923 52.8041 48.9687L52.7474 48.9775C52.5707 49.0068 52.3962 49.0068 52.232 48.9814L52.1255 48.9589C51.9726 48.9256 51.8298 48.8717 51.7029 48.7993L45.8542 45.7766L39.9567 48.8238C39.7968 48.9068 39.6196 48.9617 39.4351 48.9854C39.2506 49.009 39.0625 49.001 38.8816 48.9618C38.5305 48.8855 38.2099 48.6916 38.0082 48.4009C37.9131 48.2629 37.8519 48.1141 37.8236 47.9653L37.8224 47.9575C37.7987 47.8352 37.7998 47.7089 37.8224 47.5846L38.5803 44.7107C38.7038 44.74 38.8307 44.7645 38.9575 44.7841C39.3823 44.8507 39.8207 44.8663 40.2557 44.8242L39.5908 47.3379L45.4271 44.3231C45.682 44.1919 46.0094 44.1821 46.2812 44.3231L52.1176 47.3379L50.603 41.6097C50.5384 41.3601 50.629 41.088 50.8669 40.9079L55.9896 37.0434L49.2696 36.5217C49.1101 36.5182 48.955 36.4751 48.823 36.3975C48.6911 36.3199 48.5877 36.2111 48.5254 36.0841L45.8542 30.6809L43.1841 36.0841C43.1546 36.1438 43.115 36.1996 43.0686 36.2495L42.45 33.9091L44.5843 29.5944C44.7451 29.3183 45.0136 29.1147 45.3251 29.0061C45.6367 28.8984 45.9946 28.8837 46.33 28.9875C46.3855 29.0032 46.4387 29.0227 46.4886 29.0462C46.6313 29.1079 46.7559 29.1872 46.8624 29.2802C46.9938 29.3947 47.098 29.5298 47.1683 29.6737L47.175 29.6884Z" fill="#008454"/>
</svg>
