<svg width="58" height="38" viewBox="0 0 58 38" fill="none" xmlns="http://www.w3.org/2000/svg">
<path d="M2.50167 5.22053H13.7826V1.65486C13.7838 1.21708 13.9701 0.797503 14.3007 0.487534C14.6314 0.177565 15.0797 0.00232708 15.5479 0L28.4667 0C28.935 0.00346124 29.383 0.178923 29.7142 0.488523C30.0453 0.798122 30.233 1.21703 30.2367 1.65486V5.22053H41.5365C42.1985 5.22515 42.8319 5.47305 43.3 5.91068C43.768 6.3483 44.0332 6.94052 44.0381 7.5594V8.65382C41.2199 10.4816 38.2292 12.0651 35.1031 13.3845C32.0893 14.6587 28.9455 15.6449 25.7196 16.328V13.9803C25.7234 13.744 25.6765 13.5094 25.5815 13.2904C25.4866 13.0714 25.3456 12.8725 25.1668 12.7054C24.9881 12.5383 24.7753 12.4065 24.5411 12.3177C24.3069 12.2289 24.056 12.185 23.8033 12.1886H20.2113C19.7031 12.1886 19.2156 12.3774 18.8562 12.7134C18.4969 13.0494 18.295 13.5051 18.295 13.9803V16.2529C15.1545 15.5782 12.0923 14.6175 9.15222 13.3845C5.94516 12.0266 2.88107 10.3911 4.00289e-05 8.49936V7.5594C0.00252676 6.93981 0.266889 6.34626 0.735497 5.90814C1.20411 5.47002 1.83896 5.22286 2.50167 5.22053ZM53.549 34.7874L53.4169 30.317L45.558 32.4308C44.1586 32.7179 42.7093 32.7179 41.3099 32.4308L33.7862 30.2861V34.8183C34.0033 37.1748 41.2297 37.9073 43.4481 37.9956C45.2276 38.075 52.251 37.2101 53.1714 35.8553C53.3843 35.5284 53.5136 35.1599 53.549 34.7785V34.7874ZM56.7351 27.0956V32.55H56.9192C56.9797 32.5512 57.0373 32.5744 57.0797 32.6149C57.122 32.6553 57.1457 32.7096 57.1457 32.7662V34.2357C57.1445 34.2916 57.1203 34.3448 57.078 34.3843C57.0358 34.4238 56.9789 34.4464 56.9192 34.4476H56.7351V34.9639C56.8509 34.9853 56.9551 35.0437 57.03 35.129C57.1049 35.2143 57.1458 35.3213 57.1457 35.4317C57.1445 35.5565 57.0909 35.676 56.9964 35.7643C56.902 35.8526 56.7742 35.9027 56.6407 35.9038H55.7297C55.5961 35.9027 55.4684 35.8526 55.3739 35.7643C55.2795 35.676 55.2259 35.5565 55.2247 35.4317C55.2248 35.3207 55.2664 35.2132 55.3422 35.1278C55.418 35.0424 55.5234 34.9844 55.64 34.9639V34.4476H55.4559C55.3954 34.4476 55.3373 34.4254 55.294 34.3858C55.2508 34.3462 55.2259 34.2923 55.2247 34.2357V32.7662C55.2247 32.7089 55.249 32.6539 55.2924 32.6133C55.3358 32.5728 55.3946 32.55 55.4559 32.55H55.64V27.4045L46.0725 30.1891C44.3678 30.5854 42.5851 30.5854 40.8804 30.1891L30.3169 27.2412L29.3729 26.9764C28.1835 26.5351 28.4808 25.454 29.59 25.2112L41.5365 21.875C42.7388 21.5176 44.03 21.5176 45.2323 21.875L56.9428 25.1539C58.2125 25.4451 58.4673 26.5484 56.9852 27.0029L56.7351 27.0735V27.0956ZM23.6333 14.148H20.3812C20.3569 14.1473 20.3326 14.1514 20.31 14.1598C20.2874 14.1683 20.2668 14.1809 20.2496 14.197C20.2324 14.2131 20.2189 14.2323 20.2098 14.2535C20.2008 14.2746 20.1965 14.2973 20.1971 14.3201V20.7409C20.1984 20.7865 20.2168 20.8303 20.2491 20.8645C20.2664 20.8806 20.2871 20.8932 20.3098 20.9015C20.3325 20.9098 20.3568 20.9138 20.3812 20.913H23.6333C23.6821 20.9119 23.7289 20.8947 23.7655 20.8645C23.784 20.849 23.7987 20.8299 23.8085 20.8086C23.8183 20.7872 23.8229 20.7641 23.8221 20.7409V14.3201C23.8222 14.2971 23.8172 14.2743 23.8077 14.2532C23.7982 14.232 23.7842 14.2128 23.7666 14.1968C23.749 14.1807 23.7281 14.1681 23.7052 14.1598C23.6824 14.1514 23.6579 14.1474 23.6333 14.148ZM27.1215 2.25944H16.9025C16.8445 2.25942 16.7888 2.28067 16.7473 2.31862C16.7059 2.35656 16.6819 2.40819 16.6807 2.46243V5.15434H27.3386V2.46243C27.3373 2.40819 27.3134 2.35656 27.272 2.31862C27.2305 2.28067 27.1748 2.25942 27.1167 2.25944H27.1215ZM44.0193 12.2724V19.2582C43.7927 19.2582 43.5472 19.2582 43.3443 19.2582C42.4912 19.2679 41.6434 19.3851 40.8238 19.6068L28.9056 22.9165C28.109 23.1016 27.3944 23.5152 26.8619 24.0992C26.4275 24.5759 26.1548 25.1628 26.0783 25.7849C25.9936 26.465 26.1602 27.1517 26.5503 27.731C26.9255 28.2944 27.4663 28.7448 28.108 29.0285C28.2749 29.1177 28.4523 29.1888 28.6366 29.2403L31.2751 30.0081V30.3082V31.8969H2.50167C2.17173 31.8963 1.84516 31.8348 1.5407 31.716C1.23623 31.5971 0.959864 31.4233 0.727442 31.2043C0.495021 30.9854 0.311122 30.7257 0.186297 30.4401C0.0614714 30.1546 -0.00182459 29.8488 4.00289e-05 29.5404V12.1312C2.38351 13.5506 4.87443 14.8057 7.453 15.8867C10.9075 17.3381 14.5185 18.4388 18.2242 19.1699H18.295V21.0454C18.2943 21.2811 18.3435 21.5145 18.4395 21.7324C18.5355 21.9503 18.6766 22.1483 18.8546 22.3152C19.0326 22.482 19.2441 22.6144 19.4769 22.7047C19.7097 22.795 19.9592 22.8415 20.2113 22.8415H23.8033C24.0564 22.8451 24.3077 22.801 24.5422 22.712C24.7768 22.6229 24.9898 22.4907 25.1686 22.3231C25.3473 22.1556 25.4882 21.9561 25.5829 21.7366C25.6776 21.5171 25.7241 21.282 25.7196 21.0454V19.192L26.0311 19.1567C29.7412 18.431 33.357 17.3347 36.8165 15.8867C39.3116 14.8389 41.7248 13.6283 44.0381 12.2636L44.0193 12.2724Z" fill="#309144"/>
</svg>
