<svg width="49" height="50" viewBox="0 0 49 50" fill="none" xmlns="http://www.w3.org/2000/svg">
<path fill-rule="evenodd" clip-rule="evenodd" d="M8.39721 0.961184C9.21868 0.961184 10.0217 1.19762 10.7047 1.64059C11.3877 2.08355 11.9199 2.71314 12.2341 3.4497C12.5483 4.18626 12.6302 4.9967 12.4697 5.77849C12.3091 6.56028 11.9132 7.27829 11.3321 7.8417C10.7509 8.4051 10.0106 8.78857 9.20481 8.94361C8.39902 9.09864 7.56395 9.01827 6.80524 8.71266C6.04652 8.40705 5.39827 7.88994 4.94247 7.22674C4.48667 6.56353 4.24382 5.78404 4.24463 4.98688C4.24463 4.45788 4.35207 3.93407 4.56081 3.44539C4.76955 2.95671 5.07549 2.51274 5.46114 2.13887C5.8468 1.765 6.30461 1.46855 6.8084 1.26648C7.31219 1.0644 7.85208 0.960659 8.39721 0.961184ZM39.7635 35.3412C40.4769 35.3404 41.1744 35.5449 41.7679 35.9289C42.3614 36.3129 42.8242 36.8591 43.0977 37.4984C43.3713 38.1377 43.4433 38.8414 43.3046 39.5204C43.1659 40.1994 42.8229 40.8232 42.3187 41.313C41.8146 41.8027 41.1722 42.1364 40.4726 42.2717C39.773 42.4071 39.0478 42.338 38.3887 42.0733C37.7296 41.8086 37.1662 41.3601 36.7699 40.7846C36.3735 40.2091 36.1619 39.5324 36.1619 38.8402C36.1619 37.9129 36.5412 37.0235 37.2165 36.3674C37.8919 35.7113 38.8079 35.3422 39.7635 35.3412ZM11.0943 35.3412C11.8077 35.3404 12.5052 35.5449 13.0987 35.9289C13.6922 36.3129 14.155 36.8591 14.4285 37.4984C14.7021 38.1377 14.7741 38.8414 14.6354 39.5204C14.4967 40.1994 14.1536 40.8232 13.6495 41.313C13.1454 41.8027 12.503 42.1364 11.8034 42.2717C11.1038 42.4071 10.3786 42.338 9.71953 42.0733C9.06042 41.8086 8.49704 41.3601 8.10065 40.7846C7.70427 40.2091 7.49269 39.5324 7.49269 38.8402C7.49269 37.9129 7.87201 37.0235 8.54733 36.3674C9.22265 35.7113 10.1387 35.3422 11.0943 35.3412ZM8.82891 42.8539C7.99453 42.9406 7.20082 43.2484 6.53472 43.7437C5.68483 44.4232 5.00333 45.2795 4.54066 46.2492C4.03305 47.2929 3.7531 48.4271 3.71837 49.5807L3.6567 49.9797H6.74851L6.79785 49.4491C6.80845 48.9174 6.9214 48.3924 7.13088 47.901C7.23095 47.6569 7.36967 47.4294 7.54202 47.2267L7.59959 49.9797H14.5562L14.5891 48.1484V48.2681L14.6096 47.2267C14.782 47.4294 14.9207 47.6569 15.0208 47.901C15.2303 48.3924 15.3432 48.9174 15.3538 49.4491L15.4031 49.9797H15.6416C15.6355 49.896 15.6355 49.812 15.6416 49.7283L15.6992 49.3294C15.7449 48.6585 15.8411 47.9918 15.987 47.3345C16.1684 46.6123 16.4332 45.9124 16.7764 45.2478L16.8915 45.0204C16.5068 44.4195 15.9856 43.9119 15.3678 43.5364C14.75 43.1609 14.0519 42.9275 13.3268 42.8539C12.0934 42.7582 10.0377 42.8539 8.82891 42.8539ZM25.431 34.2679C26.1964 34.2679 26.9445 34.4882 27.5808 34.9009C28.2172 35.3136 28.7131 35.9002 29.0058 36.5865C29.2985 37.2727 29.3748 38.0278 29.2252 38.7562C29.0756 39.4846 28.7067 40.1536 28.1652 40.6785C27.6238 41.2034 26.934 41.5606 26.1832 41.705C25.4325 41.8495 24.6544 41.7745 23.9476 41.4898C23.2407 41.205 22.6367 40.7232 22.2121 40.1052C21.7875 39.4873 21.5613 38.761 21.5621 38.0183C21.5621 37.5255 21.6622 37.0375 21.8567 36.5822C22.0512 36.1269 22.3362 35.7133 22.6955 35.365C23.0548 35.0167 23.4814 34.7405 23.9507 34.5523C24.4201 34.364 24.9231 34.2674 25.431 34.2679ZM22.997 42.3153C22.0999 42.4096 21.2467 42.7408 20.5301 43.2729C19.6198 44.0072 18.8907 44.9302 18.3963 45.9739C17.8498 47.099 17.5488 48.3215 17.5123 49.5648L17.4465 49.9996H20.7686L20.822 49.4291C20.8349 48.8592 20.9562 48.2965 21.1797 47.7694C21.2895 47.5062 21.4407 47.2613 21.6279 47.0432L21.6896 49.9996H29.1436L29.1806 48.0367V48.1643L29.2053 47.0432C29.3897 47.2632 29.5406 47.5078 29.6535 47.7694C29.875 48.2971 29.9962 48.8594 30.0111 49.4291L30.0646 49.9996H33.3825L33.3209 49.5528C33.2862 48.3093 32.9852 47.0864 32.4369 45.962C31.3556 43.7437 29.97 42.5707 27.828 42.3273C26.5164 42.2235 24.3168 42.3273 23.0011 42.3033L22.997 42.3153ZM37.4981 42.8539C36.6623 42.9397 35.867 43.2475 35.1998 43.7437C34.73 44.1182 34.3151 44.5531 33.9664 45.0364L34.0692 45.2438C34.4077 45.9189 34.6644 46.6299 34.8339 47.3624C34.9803 48.0194 35.0751 48.6863 35.1176 49.3573L35.1628 49.6446C35.1845 49.7577 35.1955 49.8726 35.1957 49.9877H35.4342L35.4835 49.457C35.4976 48.9254 35.6118 48.4007 35.8206 47.909C35.9206 47.6648 36.0593 47.4373 36.2318 47.2347L36.2893 49.9877H43.2295L43.2624 48.1564V48.2761L43.2871 47.2347C43.4581 47.4383 43.5967 47.6655 43.6982 47.909C43.9077 48.4003 44.0206 48.9254 44.0312 49.457L44.0806 49.9877H47.1765L47.1148 49.5887C47.0824 48.4348 46.8023 47.3002 46.2925 46.2572C45.2852 44.1905 43.9819 43.0973 42.0002 42.8699C40.7667 42.7741 38.711 42.8699 37.5063 42.8699L37.4981 42.8539ZM20.7193 15.7792L25.3693 11.0434C25.5007 10.909 25.6817 10.8308 25.8726 10.8259C26.0634 10.821 26.2484 10.8899 26.3869 11.0174C26.5254 11.1449 26.606 11.3206 26.611 11.5058C26.616 11.691 26.545 11.8705 26.4136 12.0049L22.0308 16.4655C22.2688 16.7447 22.4196 17.0839 22.4657 17.4435C22.5118 17.803 22.4512 18.1678 22.291 18.495C22.1308 18.8223 21.8777 19.0983 21.5614 19.2908C21.2451 19.4833 20.8788 19.5841 20.5055 19.5815V25.1273H43.3775V7.21318H20.5055V15.7234L20.7193 15.7633V15.7792ZM30.817 29.8153V26.5756H15.7937C15.6911 26.583 15.5879 26.5698 15.4908 26.5367C15.3937 26.5037 15.3046 26.4516 15.2292 26.3836C15.1537 26.3156 15.0935 26.2333 15.0524 26.1417C15.0112 26.0502 14.99 25.9514 14.99 25.8515C14.99 25.7516 15.0112 25.6528 15.0524 25.5612C15.0935 25.4696 15.1537 25.3873 15.2292 25.3193C15.3046 25.2514 15.3937 25.1992 15.4908 25.1662C15.5879 25.1332 15.6911 25.1199 15.7937 25.1273H19.013V19.3341L15.288 18.6399C14.7913 18.5515 14.3493 18.2798 14.0546 17.8819L12.4552 15.7633V15.8191L12.3278 22.8811L13.9271 31.7703L14.3383 34.7228C14.3422 34.7692 14.3422 34.8159 14.3383 34.8624C13.7372 34.3996 13.0381 34.0716 12.291 33.902C11.5439 33.7323 10.7674 33.7251 10.0171 33.8809L8.3931 24.86L6.59639 34.9342C6.18524 37.1126 2.53838 37.1286 2.5096 34.4874L4.54066 22.9569L4.3762 15.9508L4.34742 14.7539C4.14786 14.995 3.98706 15.264 3.87049 15.5518C3.63122 16.1131 3.50022 16.7122 3.48401 17.3193L3.13043 21.8078V21.8796V21.9115V21.9355V21.9993V22.131V22.1669V22.1868V22.2267C2.4397 23.1524 0.725224 23.4237 0.0838367 22.2267V22.1908V22.1629V22.139V22.111V22.0751V22.0392V22.0113V21.9714V22.107V22.0632V22.0352V21.9993V21.9674V21.9076V21.8517V21.8198C0.0800121 20.3642 0.189966 18.9104 0.412753 17.4709C0.215403 13.7285 2.17657 9.94219 6.37026 9.63897C7.6037 9.55119 8.8618 9.67089 10.0706 9.67089C10.884 9.66056 11.6924 9.79581 12.4552 10.0699C12.9095 10.1728 13.3107 10.4304 13.5859 10.796L16.7517 15.0371L19.0089 15.4601V7.21318H15.7937C15.6911 7.22058 15.5879 7.20734 15.4908 7.17431C15.3937 7.14127 15.3046 7.08914 15.2292 7.02117C15.1537 6.9532 15.0935 6.87086 15.0524 6.7793C15.0112 6.68774 14.99 6.58892 14.99 6.48903C14.99 6.38914 15.0112 6.29033 15.0524 6.19876C15.0935 6.1072 15.1537 6.02486 15.2292 5.9569C15.3046 5.88893 15.3937 5.8368 15.4908 5.80376C15.5879 5.77072 15.6911 5.75749 15.7937 5.76489H30.6978V3.65828C30.6901 3.55866 30.7038 3.45859 30.7378 3.36432C30.7719 3.27005 30.8256 3.18362 30.8956 3.11041C30.9657 3.03721 31.0505 2.97882 31.1449 2.93889C31.2392 2.89896 31.3411 2.87835 31.444 2.87835C31.5469 2.87835 31.6488 2.89896 31.7431 2.93889C31.8375 2.97882 31.9223 3.03721 31.9924 3.11041C32.0624 3.18362 32.1161 3.27005 32.1502 3.36432C32.1842 3.45859 32.1978 3.55866 32.1902 3.65828V5.74893H48.0358C48.1384 5.74153 48.2416 5.75476 48.3387 5.7878C48.4359 5.82084 48.5249 5.87297 48.6004 5.94094C48.6758 6.0089 48.736 6.09124 48.7771 6.1828C48.8183 6.27437 48.8395 6.37318 48.8395 6.47307C48.8395 6.57296 48.8183 6.67178 48.7771 6.76334C48.736 6.8549 48.6758 6.93724 48.6004 7.00521C48.5249 7.07318 48.4359 7.12531 48.3387 7.15835C48.2416 7.19138 48.1384 7.20462 48.0358 7.19722H44.8576V25.1114H48.1221C48.2248 25.104 48.3279 25.1172 48.425 25.1502C48.5222 25.1833 48.6113 25.2354 48.6867 25.3034C48.7621 25.3713 48.8223 25.4537 48.8635 25.5452C48.9046 25.6368 48.9258 25.7356 48.9258 25.8355C48.9258 25.9354 48.9046 26.0342 48.8635 26.1258C48.8223 26.2173 48.7621 26.2997 48.6867 26.3676C48.6113 26.4356 48.5222 26.4877 48.425 26.5208C48.3279 26.5538 48.2248 26.5671 48.1221 26.5597H32.293V29.8752C32.3341 29.8991 32.3588 29.927 32.3999 29.951L37.0582 34.2599C37.1127 34.3081 37.1586 34.3647 37.1939 34.4275C36.8348 34.6335 36.501 34.8785 36.1989 35.1576L36.0879 35.2534L36.0509 35.2933L32.293 31.8581V34.9861C32.279 35.1688 32.1943 35.3397 32.0559 35.4644C31.9175 35.5891 31.7356 35.6584 31.5468 35.6584C31.3579 35.6584 31.176 35.5891 31.0376 35.4644C30.8992 35.3397 30.8145 35.1688 30.8006 34.9861V31.7184L28.7983 33.5857C28.3777 33.2901 27.9169 33.0525 27.4292 32.8795L30.817 29.8193V29.8153Z" fill="#008454"/>
</svg>
