<svg width="49" height="52" viewBox="0 0 49 52" fill="none" xmlns="http://www.w3.org/2000/svg">
<path d="M15.8015 25.1842C15.4311 25.1842 15.1325 24.8892 15.1325 24.5233C15.1325 24.1574 15.4311 23.8624 15.8015 23.8624H30.001V22.5008C30.001 22.1349 30.2996 21.8398 30.67 21.8398C31.0403 21.8398 31.3389 22.1349 31.3389 22.5008V23.8624H48.2593C48.6296 23.8624 48.9282 24.1574 48.9282 24.5233C48.9282 24.8892 48.6296 25.1842 48.2593 25.1842H46.7194V44.1783H48.331C48.7014 44.1783 49 44.4733 49 44.8393C49 45.2052 48.7014 45.5002 48.331 45.5002H31.0748V46.1715C31.1112 46.1952 31.1351 46.2188 31.158 46.2425L35.2541 50.0889C35.5164 50.3367 35.5288 50.7612 35.2781 51.0203C35.0273 51.2803 34.5976 51.2917 34.3344 51.0439L31.0872 47.9889V51.3389C31.0872 51.7049 30.7886 51.9999 30.4183 51.9999C30.0479 51.9999 29.7493 51.7049 29.7493 51.3389V47.8593L26.3585 51.0439C26.0953 51.2917 25.6656 51.2917 25.4149 51.0203C25.1642 50.7612 25.1642 50.3367 25.4388 50.0889L29.5349 46.2425C29.5943 46.1838 29.6775 46.1365 29.7493 46.1006V45.5002H15.6053C15.2349 45.5002 14.9363 45.2052 14.9363 44.8393C14.9363 44.4733 15.2349 44.1783 15.6053 44.1783H45.3815V25.1842H15.8015ZM28.8736 41.3833C28.7932 41.3833 28.7135 41.3676 28.6392 41.3372C28.5649 41.3068 28.4974 41.2622 28.4405 41.2061C28.3836 41.1499 28.3385 41.0832 28.3077 41.0097C28.277 40.9363 28.2611 40.8576 28.2611 40.7782C28.2611 40.4444 28.5358 40.1739 28.8736 40.1739H41.9247C42.2625 40.1739 42.5362 40.4444 42.5362 40.7782C42.5362 41.1129 42.2625 41.3833 41.9247 41.3833H28.8736ZM29.7981 37.3184C29.4603 37.3184 29.1866 37.048 29.1866 36.7142C29.1866 36.3795 29.4603 36.1091 29.7981 36.1091H41.9247C42.2625 36.1091 42.5362 36.3795 42.5362 36.7142C42.5362 37.048 42.2625 37.3184 41.9247 37.3184H29.7981ZM27.8094 33.2535C27.4716 33.2535 27.1978 32.9831 27.1978 32.6493C27.1978 32.3155 27.4716 32.0442 27.8094 32.0442H41.9247C42.2625 32.0442 42.5362 32.3155 42.5362 32.6493C42.5362 32.9831 42.2625 33.2535 41.9247 33.2535H27.8094ZM21.515 29.1886C21.1772 29.1886 20.9034 28.9182 20.9034 28.5844C20.9034 28.2506 21.1772 27.9793 21.515 27.9793H41.9247C42.2625 27.9793 42.5362 28.2506 42.5362 28.5844C42.5362 28.9182 42.2625 29.1886 41.9247 29.1886H21.515ZM21.0728 37.1804L25.7135 32.3732C25.9862 32.0895 26.4399 32.0791 26.726 32.3477C27.0131 32.6172 27.0237 33.0653 26.7519 33.3481L22.3801 37.8772C22.739 38.3065 22.9094 38.8842 22.7955 39.4733C22.5926 40.5219 21.5676 41.2093 20.5072 41.0089L15.6541 40.087C15.1699 40.0037 14.7162 39.7409 14.4052 39.3163L12.8309 37.1671L12.827 37.361V37.221L12.7017 44.392L12.8921 45.4662H4.75256L4.921 44.4714L4.7717 37.3572V37.361L4.74682 36.1412L4.73821 36.1507C3.90559 36.9742 3.87018 38.9372 3.77735 40.1295L3.56584 42.8602C3.51703 43.4834 3.4644 43.8351 2.97057 44.2568C2.25279 44.8676 1.04406 44.9934 0.405722 44.2209C-0.00675913 43.7235 -0.0268568 42.9293 0.0152527 42.204C0.227714 38.576 0.659335 33.1155 4.7717 31.3189V31.3643C6.51542 30.6797 8.57016 30.9776 10.4459 30.9776C11.3389 30.9776 12.1236 31.1071 12.8203 31.3709C13.2654 31.4721 13.6759 31.7265 13.965 32.1207L17.1193 36.4296L21.0728 37.1804ZM8.78263 22.1358C11.069 22.1358 12.9218 23.9664 12.9218 26.2253C12.9218 28.4832 11.069 30.3138 8.78263 30.3138C6.49628 30.3138 4.64346 28.4832 4.64346 26.2253C4.64346 23.9664 6.49628 22.1358 8.78263 22.1358Z" fill="#008454"/>
<path d="M26.1843 4.43368L30.625 4.78811L27.2196 7.84719L28.2549 12.48L24.5024 9.97524L20.7189 12.48L21.7804 7.84719L18.375 4.76583L22.8151 4.43368L24.4977 0L26.1843 4.43368Z" fill="#008454"/>
<path d="M43.8583 6.26679L43.2607 10.8612L46.957 13.4683L42.5585 14.2712L41.2897 18.7202L39.1791 14.6373L34.707 14.7771L37.8011 11.4321L36.2827 7.06967L40.3123 9.08422L43.8482 6.24023L43.8583 6.26679Z" fill="#008454"/>
<path d="M5.10393 6.24023L8.6427 9.08118L12.6756 7.06482L11.1668 11.4263L14.2891 14.7743L9.78764 14.6337L7.70637 18.7202L6.45207 14.2672L2.03906 13.4426L5.71285 10.8066L5.10393 6.24023Z" fill="#008454"/>
</svg>
