<svg width="40" height="65" viewBox="0 0 40 65" fill="none" xmlns="http://www.w3.org/2000/svg">
<path fill-rule="evenodd" clip-rule="evenodd" d="M20.0815 21.8888C21.7045 21.8888 23.261 22.3938 24.4087 23.2925C25.5563 24.1913 26.201 25.4103 26.201 26.6813C26.201 29.3262 23.9518 31.4791 20.5678 31.4791C17.1838 31.4791 13.9619 29.3315 13.9619 26.6813C13.9619 25.4103 14.6067 24.1913 15.7543 23.2925C16.9019 22.3938 18.4585 21.8888 20.0815 21.8888ZM1.94571 60.0594H12.1585V39.8051C11.7758 39.5948 11.4555 39.3224 11.2196 39.0063L2.47256 27.369C2.24275 27.0776 2.08959 26.7532 2.02207 26.4149C1.95455 26.0765 1.97403 25.731 2.07937 25.3987C2.18471 25.0663 2.37379 24.7537 2.63549 24.4794C2.8972 24.205 3.22626 23.9744 3.60336 23.801C3.98046 23.6276 4.39799 23.515 4.83144 23.4697C5.26489 23.4244 5.70552 23.4474 6.12746 23.5374C6.5494 23.6273 6.94414 23.7824 7.28851 23.9934C7.63288 24.2045 7.91993 24.4673 8.13281 24.7664L14.7927 33.6108C18.2591 33.3543 21.7486 33.3543 25.2149 33.6108L31.9694 24.6183C32.1876 24.3269 32.4769 24.072 32.8209 23.8682C33.1649 23.6644 33.5568 23.5156 33.9742 23.4304C34.3916 23.3451 34.8264 23.3251 35.2536 23.3715C35.6809 23.4179 36.0924 23.5297 36.4645 23.7006C36.8366 23.8714 37.162 24.0981 37.4223 24.3675C37.6826 24.6368 37.8726 24.9437 37.9814 25.2706C38.0902 25.5975 38.1157 25.938 38.0565 26.2726C37.9973 26.6072 37.8546 26.9295 37.6364 27.2209L28.7745 39.0063C28.5704 39.281 28.3024 39.5232 27.9842 39.7205V60.0594H38.2172V65H1.94571V60.0594ZM19.0616 60.0594H21.0879V49.9561C20.4218 50.0804 19.7277 50.0804 19.0616 49.9561V60.0594ZM21.1825 4.51742C21.1825 4.74609 21.0665 4.9654 20.86 5.1271C20.6535 5.2888 20.3735 5.37964 20.0815 5.37964C19.7895 5.37964 19.5094 5.2888 19.303 5.1271C19.0965 4.9654 18.9805 4.74609 18.9805 4.51742V0.862223C18.9805 0.633547 19.0965 0.414238 19.303 0.252539C19.5094 0.0908411 19.7895 0 20.0815 0C20.3735 0 20.6535 0.0908411 20.86 0.252539C21.0665 0.414238 21.1825 0.633547 21.1825 0.862223V4.50684V4.51742ZM27.7005 6.6333C27.6334 6.73607 27.5404 6.82715 27.4272 6.90108C27.3139 6.97501 27.1828 7.03026 27.0416 7.06351C26.9005 7.09676 26.7522 7.10734 26.6057 7.09459C26.4592 7.08185 26.3174 7.04605 26.189 6.98935C26.0606 6.93265 25.9482 6.85622 25.8584 6.76464C25.7687 6.67306 25.7035 6.56822 25.6667 6.45641C25.63 6.34461 25.6225 6.22814 25.6447 6.11401C25.6668 5.99988 25.7182 5.89043 25.7958 5.79224L27.4911 3.41187C27.6468 3.2409 27.8772 3.12065 28.1386 3.07393C28.4 3.0272 28.6742 3.05726 28.9091 3.1584C29.1441 3.25954 29.3235 3.42472 29.4132 3.62258C29.5029 3.82045 29.4968 4.03723 29.3959 4.23177L27.6938 6.60156L27.7005 6.6333ZM14.3672 5.7605C14.4447 5.85869 14.4961 5.96814 14.5183 6.08227C14.5404 6.1964 14.5329 6.31287 14.4962 6.42467C14.4595 6.53648 14.3943 6.64132 14.3045 6.7329C14.2148 6.82448 14.1023 6.90092 13.9739 6.95762C13.8455 7.01432 13.7038 7.05011 13.5573 7.06285C13.4108 7.0756 13.2625 7.06503 13.1213 7.03177C12.9801 6.99852 12.849 6.94327 12.7358 6.86934C12.6226 6.79541 12.5296 6.70433 12.4624 6.60156L10.7671 4.23177C10.6383 4.03478 10.6119 3.80644 10.6933 3.59453C10.7747 3.38262 10.9576 3.20359 11.2037 3.09491C11.4498 2.98623 11.7401 2.95632 12.0138 3.01146C12.2874 3.06659 12.5232 3.20249 12.6718 3.39071L14.3672 5.73934V5.7605ZM5.15409 13.1925L6.41042 15.4989L9.60528 15.7263C9.63877 15.7283 9.67141 15.7355 9.70124 15.7476C9.73108 15.7597 9.7575 15.7763 9.77894 15.7966C9.80037 15.8168 9.81638 15.8402 9.826 15.8654C9.83562 15.8906 9.83866 15.9171 9.83494 15.9432C9.82839 15.9945 9.79696 16.0418 9.74713 16.0754L7.33578 17.7258L8.05176 20.1697C8.06598 20.2222 8.05348 20.277 8.0169 20.3225C7.98032 20.3679 7.92255 20.4004 7.85588 20.413C7.78865 20.4235 7.71886 20.4141 7.66 20.3866L4.91768 19.1012L2.16861 20.3866C2.11034 20.4138 2.04069 20.4218 1.97487 20.4089C1.90906 20.396 1.85243 20.3633 1.81737 20.3178C1.7933 20.2702 1.7933 20.2173 1.81737 20.1697L2.49958 17.7258L0.0882293 16.0754C0.0411694 16.037 0.0148926 15.9859 0.0148926 15.9326C0.0148926 15.8794 0.0411694 15.8282 0.0882293 15.7898C0.136448 15.7512 0.201693 15.7285 0.2706 15.7263L3.45196 15.4989L4.70829 13.1925C4.73642 13.1443 4.7872 13.1064 4.85009 13.0867C4.91298 13.067 4.98315 13.067 5.04601 13.0868C5.07649 13.0963 5.10416 13.1106 5.12738 13.1288C5.1506 13.147 5.16887 13.1687 5.1811 13.1925H5.15409ZM35.3196 13.1925L36.5759 15.4989L39.7708 15.7263C39.8043 15.7283 39.8369 15.7355 39.8667 15.7476C39.8966 15.7597 39.923 15.7763 39.9444 15.7966C39.9659 15.8168 39.9819 15.8402 39.9915 15.8654C40.0011 15.8906 40.0042 15.9171 40.0004 15.9432C39.9939 15.9945 39.9624 16.0418 39.9126 16.0754L37.5013 17.7258L38.2172 20.1697C38.2315 20.2222 38.219 20.277 38.1824 20.3225C38.1458 20.3679 38.088 20.4004 38.0214 20.413C37.9541 20.4235 37.8843 20.4141 37.8255 20.3866L35.0832 19.1012L32.3341 20.3866C32.2758 20.4138 32.2062 20.4218 32.1404 20.4089C32.0745 20.396 32.0179 20.3633 31.9829 20.3178C31.9588 20.2702 31.9588 20.2173 31.9829 20.1697L32.6583 17.7258L30.247 16.0754C30.1999 16.037 30.1736 15.9859 30.1736 15.9326C30.1736 15.8794 30.1999 15.8282 30.247 15.7898C30.2952 15.7512 30.3604 15.7285 30.4293 15.7263L33.6107 15.4989L34.867 13.1925C34.8867 13.1562 34.9196 13.1251 34.9616 13.1033C35.0037 13.0815 35.053 13.0698 35.1034 13.0698C35.1539 13.0698 35.2032 13.0815 35.2452 13.1033C35.2873 13.1251 35.3202 13.1562 35.3398 13.1925H35.3196ZM20.507 6.87663L22.7562 11.0079L28.4705 11.4046C28.5912 11.4153 28.7019 11.4619 28.7799 11.5348C28.8578 11.6076 28.897 11.7012 28.8893 11.7961C28.8785 11.8881 28.8229 11.9733 28.734 12.0341L24.4111 14.991L25.6674 19.3709C25.6824 19.4168 25.6852 19.4646 25.6758 19.5114C25.6664 19.5582 25.6449 19.603 25.6127 19.6431C25.5804 19.6832 25.5381 19.7177 25.4883 19.7446C25.4385 19.7714 25.3823 19.7901 25.323 19.7994C25.2635 19.8115 25.2013 19.8135 25.1408 19.8053C25.0802 19.7971 25.0226 19.7788 24.9717 19.7518L20.0815 17.4561L15.1575 19.7624C15.1062 19.7872 15.0491 19.8038 14.9896 19.8111C14.93 19.8184 14.8692 19.8164 14.8107 19.805C14.7522 19.7937 14.6971 19.7733 14.6488 19.7451C14.6005 19.7169 14.5599 19.6814 14.5293 19.6407C14.4691 19.5611 14.4498 19.4666 14.4753 19.3762L15.7519 14.9963L11.429 12.0394C11.3796 12.008 11.3392 11.9688 11.3101 11.9245C11.2811 11.8802 11.2641 11.8316 11.2603 11.7819C11.2565 11.7321 11.2659 11.6823 11.288 11.6356C11.3101 11.5889 11.3443 11.5462 11.3885 11.5104C11.4702 11.4392 11.584 11.3956 11.7059 11.3888L17.4067 10.992L19.6627 6.87663C19.7103 6.78905 19.8004 6.71984 19.913 6.68414C20.0257 6.64845 20.1519 6.64919 20.2638 6.6862C20.373 6.72566 20.4596 6.79538 20.507 6.88192V6.87663ZM18.5887 35.8431L19.0143 34.2562H21.0406L21.5472 35.8431C21.125 36.1111 20.598 36.2573 20.0545 36.2573C19.511 36.2573 18.984 36.1111 18.5617 35.8431H18.5887ZM17.6364 44.1321L18.9873 37.192C19.6468 37.3544 20.3541 37.3544 21.0136 37.192L22.4726 44.1321L19.9937 46.5865L17.5823 44.1321H17.6364Z" fill="#008454"/>
</svg>
