<svg width="43" height="48" viewBox="0 0 43 48" fill="none" xmlns="http://www.w3.org/2000/svg">
<path d="M18.8251 45.449C19.5241 45.449 20.0949 46.0193 20.0949 46.7224C20.0949 47.4255 19.528 47.9958 18.8251 47.9958H2.95545C2.14391 47.9958 1.40615 47.6638 0.870297 47.1248C0.334447 46.5896 0.00439453 45.8513 0.00439453 45.031V2.96851C0.00439453 2.14819 0.334447 1.40991 0.870297 0.87085C1.40615 0.331787 2.14003 -0.000244141 2.95545 -0.000244141H39.1836C39.9951 -0.000244141 40.7329 0.335693 41.2687 0.87085C41.8046 1.40991 42.1346 2.14819 42.1346 2.96851V24.0427C42.1346 24.7458 41.5677 25.3162 40.8688 25.3162C40.1698 25.3162 39.6029 24.7458 39.6029 24.0427V2.96851C39.6029 2.85522 39.5563 2.74976 39.4787 2.67554C39.401 2.59741 39.2962 2.55054 39.1874 2.55054H2.95545C2.84284 2.55054 2.738 2.59741 2.66035 2.67163C2.58657 2.75366 2.53997 2.85522 2.53997 2.96851V45.031C2.53997 45.1443 2.58657 45.2498 2.66423 45.324C2.74189 45.4021 2.84673 45.449 2.95933 45.449H18.8251ZM13.1832 22.6248C12.9424 22.2068 13.1172 21.0115 13.6336 20.5896C15.1091 19.7224 17.1438 19.9919 18.565 18.9919C18.6465 18.8669 18.7358 18.6873 18.8251 18.488C18.9533 18.1912 19.0737 17.8669 19.1474 17.6443C18.8329 17.2693 18.5611 16.8474 18.3048 16.4333L17.4506 15.0662C17.1399 14.5974 16.9769 14.1677 16.9652 13.8162C16.9613 13.6521 16.9885 13.4998 17.0506 13.3669C17.1128 13.2263 17.2098 13.113 17.3457 13.0232C17.4079 12.9802 17.4778 12.9451 17.5515 12.9177C17.4933 12.1755 17.4739 11.2419 17.5127 10.4568C17.5321 10.2732 17.5671 10.0857 17.6175 9.89819C17.835 9.11304 18.3825 8.48022 19.062 8.04663C19.4348 7.80835 19.8464 7.62476 20.2735 7.50366C20.5453 7.42554 20.0405 6.55444 20.324 6.52319C21.683 6.38257 23.8769 7.62866 24.8243 8.65991C25.2981 9.17554 25.597 9.86304 25.6631 10.7693L25.6087 12.9998C25.8456 13.074 25.997 13.2224 26.0591 13.4685C26.129 13.7419 26.0552 14.1209 25.8223 14.6443C25.8184 14.6521 25.8145 14.6638 25.8067 14.6716L24.8321 16.2849C24.4749 16.8787 24.1099 17.4724 23.6361 17.9412C23.6789 18.0037 23.7255 18.0662 23.7682 18.1287C23.9623 18.4138 24.1565 18.699 24.405 18.9529C24.4127 18.9607 24.4205 18.9724 24.4244 18.9802C25.5466 19.7771 28.2763 19.9724 29.3247 20.5583L29.3674 20.5818C29.9071 20.9998 30.0741 22.1951 29.8256 22.613H13.1832V22.6248ZM39.7233 30.8748C39.5175 30.6755 39.2806 30.5818 39.0088 30.5857C38.7331 30.5896 38.5001 30.699 38.3099 30.9021L36.7373 32.5505L41.1522 36.8396L42.7403 35.1755C42.9306 34.9802 43.0083 34.7302 43.0044 34.4568C43.0005 34.1873 42.9034 33.9373 42.7093 33.7537L39.7233 30.8748ZM32.831 45.3787C32.2486 45.5662 31.6661 45.7576 31.0876 45.949C30.5051 46.1443 29.9227 46.3396 29.3441 46.5349C27.9734 46.988 27.2046 47.238 27.0415 47.2849C26.8862 47.3318 26.9755 46.6873 27.325 45.3357L28.4161 41.1052L35.3355 34.0037L39.7466 38.2732L32.831 45.3787ZM12.3289 37.2498C11.63 37.2498 11.0592 36.6716 11.0592 35.9568C11.0592 35.2419 11.6261 34.6638 12.3289 34.6638H20.953C21.6519 34.6638 22.2227 35.2419 22.2227 35.9568C22.2227 36.6716 21.6558 37.2498 20.953 37.2498H12.3289ZM12.3289 29.1677C11.63 29.1677 11.0631 28.5974 11.0631 27.8904C11.0631 27.1873 11.63 26.6169 12.3289 26.6169H29.4334C30.1324 26.6169 30.6993 27.1873 30.6993 27.8904C30.6993 28.5935 30.1324 29.1677 29.4334 29.1677H12.3289Z" fill="#008454"/>
</svg>
