<svg width="44" height="46" viewBox="0 0 44 46" fill="none" xmlns="http://www.w3.org/2000/svg">
<path fill-rule="evenodd" clip-rule="evenodd" d="M7.51773 0.222168H36.6033C37.2967 0.222168 37.8441 0.781343 37.8441 1.48963C37.8441 2.19792 37.2967 2.7571 36.6033 2.7571H7.51773C6.82435 2.7571 6.27694 2.19792 6.27694 1.48963C6.27694 0.781343 6.82435 0.222168 7.51773 0.222168ZM43.2817 16.3264V17.8548C43.2817 18.0039 43.3182 18.1531 43.3182 18.3022C43.3182 20.8744 40.9826 22.962 38.0631 22.962C35.1801 22.962 32.808 20.8744 32.808 18.3022C32.808 18.1903 32.808 18.0785 32.808 17.9667H32.589C32.589 18.0785 32.589 18.1903 32.589 18.3022C32.589 20.8744 30.2534 22.962 27.3339 22.962C24.4509 22.962 22.0788 20.8744 22.0788 18.3022C22.0788 18.1903 22.0788 18.0785 22.0788 17.9667H21.8598C21.8598 18.0785 21.8598 18.1903 21.8598 18.3022C21.8598 20.8744 19.5242 22.962 16.6047 22.962C13.7217 22.962 11.3496 20.8744 11.3496 18.3022C11.3496 18.1903 11.3496 18.0785 11.3496 17.9667H11.2036C11.2036 18.0785 11.2036 18.1903 11.2036 18.3022C11.2036 20.8744 8.868 22.962 5.9485 22.962C3.06548 22.962 0.693383 20.8744 0.693383 18.3022C0.693383 18.1903 0.693383 18.0412 0.729877 17.9294V16.3264H43.2817ZM6.13096 4.09912H38.0996L42.1869 12.9714H1.93417L6.13096 4.09912ZM1.24079 40.4828H5.65654V26.2052C5.72953 26.2052 5.80252 26.2052 5.87551 26.2052H5.9485H6.02148H6.05798C8.06514 26.2052 9.88983 25.5342 11.3496 24.4904L11.3861 24.5277H11.4226V24.5649L11.4956 24.6022L11.5685 24.6395L11.6415 24.6768V37.8733H12.9918C14.0501 40.3337 17.4441 42.1603 21.4949 42.1603C25.5457 42.1603 28.9396 40.3337 29.9979 37.8733H31.1292V25.1614C31.4577 25.0123 31.7496 24.7886 32.0416 24.6022L32.1146 24.5649H32.1511L32.1876 24.5277L32.2606 24.4904C33.7203 25.5715 35.5815 26.2425 37.5887 26.2425V40.4828H42.0044C42.6978 40.4828 43.2452 41.713 43.2452 43.2414C43.2452 44.7698 42.6978 46 42.0044 46H1.24079C0.547408 46 0 44.7698 0 43.2414C0 41.7503 0.547408 40.4828 1.24079 40.4828Z" fill="#008454"/>
<path fill-rule="evenodd" clip-rule="evenodd" d="M27.1858 33.2508C27.3683 33.5491 27.4413 33.8473 27.4413 34.1455C27.4413 38.0597 16.2742 38.0597 16.2742 34.1455C16.2742 33.8473 16.3472 33.5491 16.5296 33.2508C18.1718 36.0467 25.5801 36.0467 27.1858 33.2508ZM23.8649 27.0626L23.7919 27.8082L21.0549 27.5472C21.2738 27.8455 21.4198 28.181 21.5293 28.5538L20.8724 28.4792C20.8359 28.2928 20.7264 28.0691 20.5804 27.8082C20.4345 27.5472 20.252 27.3981 19.9965 27.2863L20.033 26.6898L23.8649 27.0626ZM21.8577 25.907C24.3758 25.907 26.456 26.7271 26.456 27.7336C26.456 28.7402 24.4123 29.5603 21.8577 29.5603C19.3032 29.5603 17.2595 28.7402 17.2595 27.7336C17.2595 26.7271 19.3397 25.907 21.8577 25.907ZM21.8577 25.3105C24.9232 25.3105 27.4413 26.6526 27.4413 28.2928C27.4413 32.207 16.2742 32.207 16.2742 28.2928C16.2742 26.6526 18.7922 25.3105 21.8577 25.3105ZM27.2223 30.2686C27.3683 30.5295 27.4413 30.8277 27.4413 31.126C27.4413 35.0402 16.2742 35.0402 16.2742 31.126C16.2742 30.8277 16.3472 30.5295 16.4931 30.2686C18.0989 33.1017 25.6166 33.1017 27.2223 30.2686ZM27.1858 36.2704C27.3683 36.5686 27.4413 36.8668 27.4413 37.1651C27.4413 41.0793 16.2742 41.0793 16.2742 37.1651C16.2742 36.8668 16.3837 36.5313 16.5296 36.2704C18.1718 39.029 25.5436 39.029 27.1858 36.2704Z" fill="#008454"/>
</svg>
