<svg width="53" height="54" viewBox="0 0 53 54" fill="none" xmlns="http://www.w3.org/2000/svg">
<g clip-path="url(#clip0_132_554)">
<path d="M29.9592 40.7252C29.2593 41.5313 28.507 42.2856 27.7077 42.9829C27.9363 42.9513 28.1649 42.9107 28.3935 42.8655C29.0116 42.7366 29.6146 42.5383 30.1921 42.274C30.3387 42.2108 30.4854 42.1385 30.6234 42.0708C30.7257 42.2095 30.8446 42.3339 30.9771 42.4411C31.1076 42.5539 31.2528 42.6467 31.4084 42.7165C31.1237 42.8745 30.8304 43.019 30.5457 43.168C29.9075 43.4512 29.2424 43.6631 28.5617 43.8002C27.1846 44.0832 25.768 44.0832 24.3909 43.8002C23.7266 43.6605 23.0777 43.4502 22.4543 43.1726C22.4458 43.1751 22.4368 43.1751 22.4284 43.1726C21.8129 42.8943 21.2225 42.5588 20.6643 42.1701C20.1111 41.7863 19.5966 41.3445 19.1288 40.8516C18.6584 40.3644 18.2378 39.8271 17.8737 39.2486C17.5003 38.6648 17.1783 38.0467 16.9119 37.4018C16.6438 36.7401 16.44 36.0518 16.3037 35.3473C16.1716 34.6271 16.1051 33.8953 16.1053 33.1619C16.1046 32.4297 16.1725 31.6992 16.308 30.9809C16.4409 30.2853 16.6418 29.6059 16.9076 28.9535C16.9056 28.9492 16.9046 28.9446 16.9046 28.9399C16.9046 28.9352 16.9056 28.9306 16.9076 28.9264C17.1714 28.2796 17.492 27.6599 17.8651 27.0751C18.2318 26.4973 18.6538 25.9602 19.1245 25.4721C19.5887 24.9769 20.102 24.5349 20.6557 24.1536C21.2146 23.7557 21.8081 23.414 22.4284 23.1331C23.0579 22.8483 23.7142 22.6334 24.3866 22.4919C25.0741 22.3498 25.7733 22.2787 26.4741 22.2797C27.1737 22.2782 27.8717 22.3508 28.5574 22.4964C29.222 22.6325 29.8711 22.8413 30.494 23.1195H30.5199C31.1356 23.402 31.7272 23.7389 32.2883 24.1265C32.839 24.5102 33.352 24.9504 33.8194 25.4405C34.2888 25.9287 34.7094 26.4658 35.0745 27.0434C35.4528 27.6289 35.7777 28.2502 36.045 28.8993C36.3172 29.5634 36.5238 30.2548 36.6618 30.9628C36.7399 31.3656 36.7961 31.7726 36.83 32.182L35.8897 31.9201C35.8595 31.6627 35.8207 31.4053 35.7733 31.1525C35.651 30.5126 35.466 29.8877 35.2212 29.2876C35.0675 28.9094 34.8918 28.5415 34.695 28.1859H31.6758C32.1888 29.087 32.5806 30.058 32.8403 31.0712L31.8181 30.7867C31.5237 29.8692 31.1178 28.995 30.6104 28.1859H26.9356V29.9559C26.867 29.9963 26.802 30.0431 26.7415 30.0959C26.6941 30.1365 26.6423 30.1817 26.5992 30.2268C26.5385 30.2934 26.4823 30.3643 26.431 30.4391C26.3516 30.5624 26.2878 30.6959 26.2412 30.8364C26.1924 30.982 26.1634 31.134 26.155 31.2879C26.1399 31.4094 26.1399 31.5323 26.155 31.6537C26.1713 31.7546 26.1944 31.8542 26.224 31.9517V31.9788C26.225 31.9984 26.225 32.018 26.224 32.0375C26.2314 32.0591 26.2401 32.0802 26.2498 32.1007L26.9011 33.6405V38.1243H28.8119L29.213 39.0771H26.9356V42.4275C27.8786 41.6267 28.7545 40.743 29.5537 39.786L29.9592 40.7478V40.7252ZM10.9123 26.4745C10.8493 26.6346 10.7558 26.7796 10.6374 26.9007C10.5191 27.0217 10.3784 27.1161 10.224 27.1783C10.0696 27.2404 9.90473 27.2689 9.73944 27.2621C9.57415 27.2552 9.41192 27.2132 9.2627 27.1384C9.11347 27.0637 8.98037 26.9579 8.87154 26.8275C8.76271 26.697 8.68044 26.5447 8.62975 26.3799C8.57906 26.215 8.56103 26.0411 8.57675 25.8687C8.59248 25.6963 8.64162 25.5291 8.72119 25.3773C10.0024 22.5757 11.8633 20.1078 14.1687 18.1526C14.4206 17.963 14.7321 17.8813 15.0395 17.9243C15.347 17.9672 15.6272 18.1315 15.8228 18.3836C16.0184 18.6356 16.1146 18.9564 16.0917 19.2802C16.0689 19.6041 15.9287 19.9066 15.6999 20.1258C13.6715 21.8415 12.0356 24.0108 10.9123 26.4745ZM41.5357 42.0437C42.6139 45.3625 45.6935 45.2722 46.6424 42.0437C47.5697 42.9152 50.3 43.0868 51.3179 43.6783C51.6518 43.8631 51.9455 44.1183 52.1805 44.4278C52.5652 44.9978 52.7839 45.6722 52.8102 46.3695L53.0216 48.0808C53.0188 48.2115 52.9911 48.3402 52.9402 48.4595C52.8892 48.5788 52.8159 48.6862 52.7247 48.7754C52.6334 48.8646 52.5261 48.9338 52.4089 48.9789C52.2918 49.024 52.1672 49.0441 52.0425 49.0381H36.1442C36.0199 49.0435 35.8957 49.023 35.7791 48.9776C35.6624 48.9322 35.5556 48.8629 35.4648 48.7737C35.3741 48.6846 35.3012 48.5774 35.2505 48.4584C35.1997 48.3395 35.1722 48.2111 35.1694 48.0808L35.3678 46.374C35.3976 45.6767 35.6177 45.0029 36.0019 44.4324C36.2369 44.1228 36.5306 43.8676 36.8645 43.6828C37.8867 43.0868 40.6169 42.9152 41.54 42.0437H41.5357ZM6.36621 42.0437C7.44019 45.3625 10.5241 45.2722 11.473 42.0437C12.396 42.9152 15.1262 43.0868 16.1441 43.6783C16.478 43.8631 16.7717 44.1183 17.0068 44.4278C17.3914 44.9978 17.6101 45.6722 17.6365 46.3695L17.8478 48.0808C17.8451 48.2111 17.8175 48.3395 17.7668 48.4584C17.7161 48.5774 17.6432 48.6846 17.5524 48.7737C17.4617 48.8629 17.3548 48.9322 17.2382 48.9776C17.1215 49.023 16.9974 49.0435 16.873 49.0381H0.979085C0.854743 49.0441 0.730496 49.0242 0.613618 48.9793C0.49674 48.9345 0.389578 48.8657 0.298405 48.777C0.207232 48.6883 0.13388 48.5814 0.0826412 48.4626C0.0314027 48.3439 0.00330748 48.2156 0 48.0853L0.211344 46.374C0.244031 45.6744 0.47031 44.9998 0.86263 44.4324C1.09764 44.1228 1.39136 43.8676 1.72526 43.6828C2.74316 43.0868 5.4777 42.9152 6.40072 42.0437H6.36621ZM5.68905 36.5981C5.79824 36.6252 5.91197 36.6252 6.02116 36.5981L5.82275 35.2435C5.90105 34.8853 6.06086 34.5522 6.28857 34.2726C6.50798 34.0334 6.79549 33.875 7.10807 33.8211C7.53939 33.7895 7.67741 34.1191 8.10441 34.4126C9.30372 35.2441 10.7212 35.6625 12.1588 35.6092L11.9561 36.3588C11.9252 36.4065 11.9114 36.464 11.9172 36.5213C11.9172 36.5213 11.9172 36.5213 11.9172 36.5529L11.8914 36.6974H12.0208C12.0631 36.7255 12.1131 36.7382 12.1631 36.7336C12.4434 36.7065 12.6203 36.7336 12.6634 36.8374C12.7065 36.9413 12.6634 37.2438 12.4866 37.6863L11.6024 39.2125C11.3065 39.7817 10.9395 40.3071 10.5112 40.7749C10.2995 40.9906 10.0491 41.1603 9.77444 41.2742C9.4998 41.3881 9.20634 41.444 8.91097 41.4386C8.34616 41.4421 7.80258 41.2135 7.39705 40.802C6.98605 40.3657 6.63084 39.8754 6.34033 39.3435L5.55103 38.025C5.34861 37.7454 5.21928 37.4155 5.17578 37.0677C5.17071 36.9921 5.18253 36.9164 5.21029 36.8464C5.23439 36.7895 5.27518 36.7421 5.32674 36.711C5.4378 36.6376 5.56635 36.5985 5.69767 36.5981H5.68905ZM12.7065 36.2865L12.754 34.4804C12.7305 33.7318 12.4591 33.015 11.9862 32.4529C10.908 31.2292 8.89803 30.9177 7.37549 31.4911C7.12486 31.5855 6.88478 31.7081 6.65951 31.8569C6.01588 32.2642 5.54062 32.9082 5.32674 33.6631C5.28084 33.8393 5.24768 34.0189 5.22754 34.2004C5.19702 34.8824 5.20999 35.5657 5.26636 36.2459C5.19814 36.2746 5.13307 36.311 5.07227 36.3543C4.95205 36.435 4.85747 36.5513 4.80054 36.6884C4.73991 36.83 4.71326 36.9851 4.7229 37.1399C4.75813 37.5757 4.90736 37.9928 5.15422 38.3456L5.94352 39.6596C6.25637 40.2274 6.63921 40.7496 7.08219 41.2129C7.56982 41.7073 8.22351 41.9814 8.90234 41.976C9.25526 41.9828 9.60594 41.916 9.93398 41.7796C10.262 41.6432 10.5608 41.4398 10.8131 41.1813C11.2734 40.6848 11.668 40.1259 11.9862 39.5196L12.9006 37.9301V37.8985C13.1465 37.3115 13.1982 36.9097 13.0732 36.6387C13.0356 36.5589 12.9824 36.4883 12.917 36.4315C12.8516 36.3747 12.7755 36.333 12.6936 36.3091L12.7065 36.2865ZM23.8345 5.41906C23.9395 5.44421 24.0486 5.44421 24.1536 5.41906L23.9509 4.06443C24.0241 3.70479 24.1862 3.37158 24.4211 3.09813C24.6393 2.8573 24.9274 2.69858 25.2406 2.64659C25.6719 2.61498 25.8056 2.94461 26.2369 3.2336C27.4362 4.06507 28.8537 4.48343 30.2913 4.43018L30.0885 5.17975C30.0586 5.22788 30.045 5.2851 30.0497 5.3423C30.0497 5.3423 30.0497 5.36488 30.0497 5.37391L30.0238 5.52292H30.1489C30.1926 5.55163 30.2442 5.56434 30.2956 5.55904C30.5759 5.53195 30.7269 5.55904 30.7959 5.65387C30.8649 5.74869 30.7959 6.06477 30.6191 6.50277L29.7607 8.01543C29.463 8.58316 29.0946 9.10701 28.6652 9.57326C28.4547 9.78944 28.2052 9.9595 27.9312 10.0735C27.6571 10.1874 27.3641 10.243 27.0693 10.237C26.5045 10.2405 25.961 10.0119 25.5554 9.60035C25.1353 9.16299 24.7739 8.66776 24.4814 8.12832L23.6921 6.80981C23.4897 6.53665 23.3589 6.21292 23.3126 5.87061C23.3078 5.79506 23.3196 5.71939 23.3471 5.64935C23.3698 5.59404 23.4092 5.54805 23.4592 5.5184C23.5719 5.44511 23.7018 5.40603 23.8345 5.40552V5.41906ZM24.503 10.8376C25.5813 14.1564 28.6609 14.0706 29.6141 10.8376C30.5371 11.7091 33.2716 11.8852 34.2852 12.4767C34.6205 12.6574 34.9146 12.9115 35.1479 13.2217C35.5325 13.7917 35.7512 14.4661 35.7776 15.1634L35.9889 16.8792C35.9851 17.0093 35.9566 17.1373 35.9051 17.2558C35.8537 17.3742 35.7803 17.4809 35.6893 17.5695C35.5982 17.6581 35.4913 17.7269 35.3747 17.7719C35.2581 17.817 35.1341 17.8374 35.0098 17.832H19.1202C18.996 17.8374 18.872 17.817 18.7554 17.7719C18.6388 17.7269 18.5318 17.6581 18.4408 17.5695C18.3497 17.4809 18.2764 17.3742 18.2249 17.2558C18.1735 17.1373 18.145 17.0093 18.1411 16.8792L18.3525 15.1634C18.3772 14.4692 18.5945 13.7977 18.9779 13.2308C19.2108 12.9203 19.5051 12.6661 19.8405 12.4857C20.8541 11.8942 23.5929 11.7181 24.5116 10.8466L24.503 10.8376ZM30.852 5.09395L30.8994 3.28778C30.8754 2.53848 30.6024 1.82144 30.1274 1.26035C29.0491 0.000549524 27.0391 -0.292953 25.5209 0.280506C25.2685 0.373916 25.0269 0.496596 24.8006 0.646256C24.1629 1.04587 23.6883 1.67772 23.4679 2.42082C23.4217 2.59678 23.3899 2.77654 23.373 2.95815C23.3432 3.64157 23.3547 4.32627 23.4075 5.00816C23.3391 5.03455 23.2739 5.06942 23.2134 5.11201C23.0963 5.19638 23.0025 5.31165 22.9417 5.44616C22.884 5.57933 22.856 5.72445 22.8597 5.87061C22.9013 6.30859 23.058 6.72593 23.3126 7.07623L24.1019 8.39021C24.4143 8.95678 24.7989 9.47628 25.2449 9.93449C25.7325 10.4289 26.3862 10.703 27.065 10.6976C27.4158 10.7086 27.7653 10.6468 28.0932 10.5159C28.4211 10.3849 28.7211 10.1873 28.9758 9.93449C29.4357 9.43878 29.8289 8.87974 30.1446 8.27281L31.0547 6.71048V6.68338C31.3005 6.09638 31.3566 5.68999 31.2272 5.41906C31.1903 5.34007 31.1378 5.27021 31.0731 5.21415C31.0084 5.15809 30.933 5.11711 30.852 5.09395ZM40.8585 36.5981C40.7298 36.5996 40.6037 36.6354 40.4919 36.7019C40.4445 36.7368 40.4059 36.7833 40.3797 36.8374C40.3506 36.907 40.3388 36.9831 40.3452 37.0587C40.386 37.4058 40.5157 37.735 40.7205 38.0114L41.5098 39.3299C41.8029 39.8613 42.1594 40.3514 42.5708 40.7884C42.9763 41.2 43.5199 41.4286 44.0847 41.4251C44.681 41.4344 45.2565 41.1957 45.6849 40.7613C46.1129 40.2933 46.4799 39.7679 46.7761 39.199L47.6646 37.6682C47.8501 37.2167 47.9062 36.9503 47.8415 36.8193C47.7768 36.6884 47.6215 36.6929 47.3412 36.7155C47.2899 36.7192 47.2388 36.7066 47.1945 36.6794H47.0694L47.0953 36.5349C47.0929 36.5245 47.0929 36.5137 47.0953 36.5033C47.0895 36.446 47.1032 36.3884 47.1341 36.3407L47.3368 35.5912C45.8996 35.642 44.4827 35.2238 43.2825 34.3946C42.8512 34.1011 42.7218 33.7714 42.2861 33.803C41.9741 33.8588 41.6872 34.0169 41.4666 34.2546C41.2349 34.5302 41.0732 34.8626 40.9965 35.2209L41.1992 36.5755C41.0874 36.6049 40.9703 36.6049 40.8585 36.5755V36.5981ZM47.876 36.2865C47.9576 36.3083 48.0336 36.3487 48.0985 36.405C48.1634 36.4612 48.2155 36.5318 48.2512 36.6116C48.3806 36.8826 48.3289 37.289 48.083 37.8714V37.9031L47.1816 39.4518C46.8641 40.0576 46.471 40.6164 46.0127 41.1135C45.761 41.3729 45.4623 41.5768 45.1341 41.7133C44.806 41.8498 44.455 41.9161 44.102 41.9082C43.4187 41.9172 42.7597 41.6429 42.2689 41.1451C41.8255 40.6806 41.4427 40.1568 41.1302 39.5873L40.3409 38.2778C40.0982 37.9227 39.9494 37.5068 39.9096 37.0722C39.8993 36.9168 39.9275 36.7613 39.9915 36.6207C40.0509 36.4852 40.145 36.3695 40.2633 36.2865C40.3241 36.2459 40.3875 36.2096 40.453 36.1782C40.3981 35.4979 40.3866 34.8145 40.4185 34.1327C40.4351 33.951 40.4669 33.7712 40.5134 33.5953C40.731 32.8425 41.2053 32.1997 41.8462 31.7892C42.073 31.6404 42.3145 31.5178 42.5665 31.4234C44.0847 30.85 46.0947 31.1615 47.1729 32.3852C47.6521 32.9436 47.9258 33.6623 47.945 34.4126L47.876 36.2865ZM38.6674 20.32C38.5453 20.2129 38.4446 20.0818 38.371 19.934C38.2973 19.7862 38.2522 19.6247 38.2382 19.4587C38.2242 19.2926 38.2415 19.1253 38.2893 18.9663C38.337 18.8073 38.4142 18.6597 38.5164 18.5319C38.6187 18.4041 38.744 18.2986 38.8851 18.2215C39.0263 18.1444 39.1806 18.0972 39.3392 18.0825C39.4978 18.0678 39.6576 18.086 39.8095 18.136C39.9614 18.186 40.1024 18.2668 40.2245 18.3738C40.4703 18.5906 40.6558 18.7622 40.811 18.9021C40.9663 19.0421 41.169 19.2543 41.3717 19.4575C42.1028 20.209 42.7776 21.0182 43.3903 21.8778C44.0017 22.7368 44.551 23.6424 45.0336 24.5871C45.184 24.8864 45.2147 25.2361 45.1188 25.5592C45.023 25.8822 44.8085 26.1522 44.5225 26.3097C44.2365 26.4672 43.9025 26.4993 43.5939 26.3989C43.2853 26.2986 43.0275 26.074 42.877 25.7746C42.4594 24.9417 41.9776 24.1459 41.4364 23.395C40.9042 22.6471 40.3173 21.9436 39.681 21.2908C39.5387 21.1373 39.3704 20.9792 39.1893 20.8031L38.6847 20.3516L38.6674 20.32ZM32.6592 50.4966C32.9652 50.3894 33.2993 50.4139 33.5881 50.5646C33.8769 50.7153 34.0966 50.98 34.199 51.3003C34.3014 51.6207 34.278 51.9705 34.134 52.2728C33.99 52.5751 33.7372 52.8052 33.4312 52.9123C32.4093 53.2737 31.3605 53.5455 30.2956 53.7251C27.0344 54.2831 23.6921 53.9899 20.5651 52.8717C20.2726 52.7514 20.0357 52.5176 19.9037 52.219C19.7717 51.9204 19.7548 51.5801 19.8565 51.2688C19.9582 50.9575 20.1707 50.6992 20.4497 50.5478C20.7288 50.3964 21.0528 50.3635 21.3544 50.4559C24.1003 51.4373 27.0347 51.6963 29.8988 51.21C30.8362 51.0529 31.7596 50.8142 32.6592 50.4966ZM36.541 40.4272C36.4818 40.4903 36.4115 40.5409 36.334 40.5762C36.2558 40.616 36.1707 40.6391 36.0838 40.6439C35.9907 40.6536 35.8967 40.6428 35.8078 40.6123C35.7185 40.5847 35.636 40.5369 35.5662 40.4723L33.8669 39.0093L33.1681 40.7749C33.1136 40.9156 33.0457 41.0503 32.9654 41.1767C32.8927 41.2935 32.8057 41.3997 32.7066 41.4928C32.6335 41.5607 32.5523 41.6183 32.4651 41.6644C32.3834 41.7064 32.2962 41.7354 32.2063 41.7502C32.1037 41.7705 31.9984 41.7705 31.8958 41.7502C31.7941 41.7176 31.699 41.6655 31.6154 41.5967C31.5383 41.5314 31.4701 41.4555 31.4127 41.3709C31.3514 41.2781 31.298 41.1799 31.2531 41.0774C29.9592 38.0114 28.4064 34.7152 27.2462 31.6266C27.2316 31.5858 27.2215 31.5434 27.216 31.5002C27.2117 31.4582 27.2117 31.4158 27.216 31.3737C27.221 31.3231 27.2311 31.2732 27.2462 31.2247C27.2633 31.176 27.285 31.1291 27.3109 31.0848C27.3256 31.0657 27.3414 31.0476 27.3583 31.0306C27.3735 31.0131 27.391 30.998 27.4101 30.9854C27.4404 30.9587 27.4737 30.936 27.5093 30.9177C27.5431 30.8996 27.5795 30.8874 27.6171 30.8816C27.65 30.8772 27.6834 30.8772 27.7163 30.8816C27.7521 30.8768 27.7883 30.8768 27.8241 30.8816H27.863C31.0547 31.6763 34.2464 32.6155 37.4166 33.496C37.5204 33.5254 37.6215 33.5647 37.7185 33.6134C37.8064 33.6583 37.8877 33.7161 37.96 33.785C38.0393 33.86 38.1038 33.9505 38.1498 34.0514C38.1939 34.1505 38.2175 34.2582 38.2188 34.3675C38.2229 34.4625 38.2097 34.5575 38.18 34.6474C38.1533 34.7451 38.1125 34.838 38.0592 34.9229C37.988 35.0408 37.9008 35.1472 37.8005 35.2389C37.6929 35.3425 37.5758 35.4347 37.4511 35.5144C36.9292 35.835 36.4116 36.1736 35.894 36.5033L37.5891 37.9753C37.6596 38.0392 37.7169 38.1176 37.7573 38.2056C37.7967 38.2888 37.8201 38.3793 37.8263 38.472C37.8349 38.5677 37.8261 38.6642 37.8005 38.7565C37.7727 38.8476 37.7304 38.9331 37.6754 39.0093C37.3154 39.4969 36.931 39.9641 36.5238 40.4091L36.541 40.4272ZM36.0062 39.7363L36.968 38.5533L34.9279 36.7471L34.8934 36.711L34.8546 36.6523C34.8018 36.5534 34.7864 36.4374 34.8114 36.3272C34.8231 36.2718 34.8456 36.2195 34.8775 36.1736C34.9095 36.1278 34.9501 36.0894 34.9969 36.0608C35.6611 35.6724 36.3599 35.2209 37.0241 34.7693C37.097 34.7225 37.1662 34.6697 37.2311 34.6113C37.2793 34.5634 37.3227 34.5104 37.3605 34.4533C37.3725 34.4372 37.3813 34.4188 37.3864 34.3991L37.3303 34.3675C37.2891 34.347 37.2456 34.3318 37.2009 34.3223L28.2511 31.8479L32.0122 40.7071C32.0311 40.7507 32.0527 40.793 32.0769 40.8336L32.1114 40.8787L32.1589 40.8381C32.207 40.7914 32.249 40.7382 32.2839 40.68C32.3305 40.6046 32.3695 40.5244 32.4004 40.4407L33.3018 38.1288C33.3064 38.1125 33.3137 38.0972 33.3234 38.0837L33.3579 38.0385C33.4311 37.9565 33.5309 37.906 33.6377 37.8968C33.7446 37.8876 33.8509 37.9204 33.9359 37.9888L36.0062 39.7363ZM25.2621 42.9739C23.9294 41.8366 22.7472 40.5186 21.7469 39.0545H18.8743C19.1492 39.4479 19.4535 39.8178 19.7844 40.1608C20.2098 40.6069 20.6765 41.0077 21.1776 41.3574C21.6897 41.714 22.2344 42.0165 22.8036 42.2604C23.3764 42.5223 23.9733 42.7221 24.585 42.8565C24.8092 42.9016 25.0422 42.9423 25.2708 42.9739H25.2621ZM18.2748 38.1062H21.1646C20.3905 36.7445 19.9463 35.2051 19.8707 33.6224H17.024C17.0476 34.132 17.1067 34.6391 17.2008 35.1396C17.3197 35.7877 17.5048 36.4205 17.7529 37.0271C17.9069 37.4043 18.0811 37.7722 18.2748 38.1288V38.1062ZM17.024 32.6877H19.8966C20.0329 31.0986 20.5186 29.564 21.3156 28.2039H18.2748C18.0811 28.5606 17.9069 28.9284 17.7529 29.3057C17.5083 29.9016 17.3219 30.5218 17.1965 31.157C17.1012 31.6572 17.0435 32.1645 17.024 32.6742V32.6877ZM18.87 27.2692H21.8892C22.8764 25.8209 24.0262 24.502 25.3139 23.3408C25.0551 23.3724 24.8092 23.413 24.5634 23.4627C23.953 23.5903 23.3573 23.7855 22.7864 24.0452C22.2193 24.2939 21.675 24.5962 21.1603 24.9483C20.6593 25.2979 20.1926 25.6987 19.7672 26.1449C19.4353 26.4852 19.1309 26.8538 18.8571 27.2466L18.87 27.2692ZM27.6387 23.3408C28.9234 24.4889 30.0705 25.7959 31.0547 27.2331H34.0739C33.4389 26.332 32.6596 25.5529 31.7707 24.9302C31.2576 24.5753 30.7131 24.2729 30.1446 24.0271C29.5778 23.776 28.9882 23.5854 28.3848 23.4582C28.1347 23.4085 27.8845 23.3679 27.6387 23.3363V23.3408ZM26.9356 23.9323V27.2421H29.9548C29.0593 26.0336 28.0476 24.9245 26.9356 23.9323ZM26.0256 42.4049V39.0545H22.8597C23.7856 40.2976 24.8483 41.4221 26.0256 42.4049ZM26.0256 38.1062V33.6224H20.7851C20.8761 35.2238 21.3718 36.7712 22.2214 38.1062H26.0256ZM26.0256 32.6877V28.1859H22.3809C21.51 29.5215 20.9677 31.0617 20.8023 32.6697L26.0256 32.6877ZM26.0256 27.2692V23.9323C24.9136 24.9245 23.9019 26.0336 23.0063 27.2421L26.0256 27.2692Z" fill="#008454"/>
</g>
<defs>
<clipPath id="clip0_132_554">
<rect width="53" height="54" fill="white"/>
</clipPath>
</defs>
</svg>
