<svg width="24" height="20" viewBox="0 0 24 20" fill="none" xmlns="http://www.w3.org/2000/svg">
<path fill-rule="evenodd" clip-rule="evenodd" d="M20.6981 19.158H2.66298V16.4638C2.75761 13.3271 5.48275 10.9409 7.12919 8.2275V5.84128H9.87325V7.55397H13.5636V5.84128H16.3076V8.2275C18.0865 11.1333 20.6981 13.0192 20.6981 16.4253V19.158ZM23.2529 8.2275C23.2529 7.80414 23.3286 7.38078 23.2719 6.91893C21.2469 7.59246 19.2788 7.40002 17.3485 6.32237C17.2728 7.05363 17.3863 7.70792 17.6513 8.32372C18.3326 9.86322 23.1962 10.3828 23.2529 8.2275ZM0.127086 8.2275C0.127086 7.80414 0.0513879 7.38078 0.108162 6.91893C2.13309 7.59246 4.10125 7.40002 6.03156 6.32237C6.10726 7.05363 5.99371 7.70792 5.72877 8.32372C5.04748 9.86322 0.164935 10.3828 0.127086 8.2275ZM0.0703125 6.26464C1.69783 -1.45211 21.9093 -2.37581 23.3286 6.28388C21.3605 6.84195 19.3545 6.51481 17.3485 5.59111C17.4052 5.18699 17.3106 4.85984 17.1025 4.59043C15.9102 3.07017 7.37521 3.01244 6.27758 4.64816C6.10726 4.89833 6.03156 5.20623 6.05049 5.55262C4.0634 6.78422 2.0574 7.07288 0.0703125 6.26464ZM9.00272 9.30515C9.45691 9.30515 9.81648 9.67078 9.81648 10.1326C9.81648 10.5945 9.45691 10.9601 9.00272 10.9601C8.54853 10.9601 8.18897 10.5945 8.18897 10.1326C8.20789 9.69003 8.56746 9.30515 9.00272 9.30515ZM14.2259 13.9237C14.6801 13.9237 15.0397 14.2893 15.0397 14.7511C15.0397 15.213 14.6801 15.5786 14.2259 15.5786C13.7717 15.5786 13.4122 15.213 13.4122 14.7511C13.4122 14.3085 13.7717 13.9237 14.2259 13.9237ZM11.6143 13.9237C12.0685 13.9237 12.4281 14.2893 12.4281 14.7511C12.4281 15.213 12.0685 15.5786 11.6143 15.5786C11.1601 15.5786 10.8006 15.213 10.8006 14.7511C10.8006 14.3085 11.1601 13.9237 11.6143 13.9237ZM9.00272 13.9237C9.45691 13.9237 9.81648 14.2893 9.81648 14.7511C9.81648 15.213 9.45691 15.5786 9.00272 15.5786C8.54853 15.5786 8.18897 15.213 8.18897 14.7511C8.20789 14.3085 8.56746 13.9237 9.00272 13.9237ZM14.2259 11.6144C14.6801 11.6144 15.0397 11.98 15.0397 12.4419C15.0397 12.9037 14.6801 13.2694 14.2259 13.2694C13.7717 13.2694 13.4122 12.9037 13.4122 12.4419C13.4122 11.9993 13.7717 11.6144 14.2259 11.6144ZM11.6143 11.6144C12.0685 11.6144 12.4281 11.98 12.4281 12.4419C12.4281 12.9037 12.0685 13.2694 11.6143 13.2694C11.1601 13.2694 10.8006 12.9037 10.8006 12.4419C10.8006 11.9993 11.1601 11.6144 11.6143 11.6144ZM9.00272 11.6144C9.45691 11.6144 9.81648 11.98 9.81648 12.4419C9.81648 12.9037 9.45691 13.2694 9.00272 13.2694C8.54853 13.2694 8.18897 12.9037 8.18897 12.4419C8.20789 11.9993 8.56746 11.6144 9.00272 11.6144ZM14.2259 9.30515C14.6801 9.30515 15.0397 9.67078 15.0397 10.1326C15.0397 10.5945 14.6801 10.9601 14.2259 10.9601C13.7717 10.9601 13.4122 10.5945 13.4122 10.1326C13.4122 9.69003 13.7717 9.30515 14.2259 9.30515ZM11.6143 9.30515C12.0685 9.30515 12.4281 9.67078 12.4281 10.1326C12.4281 10.5945 12.0685 10.9601 11.6143 10.9601C11.1601 10.9601 10.8006 10.5945 10.8006 10.1326C10.8006 9.69003 11.1601 9.30515 11.6143 9.30515Z" fill="white"/>
</svg>
